G04 Layer_Physical_Order=1*
G04 Layer_Color=255*
%FSLAX25Y25*%
%MOIN*%
G70*
G01*
G75*
G04:AMPARAMS|DCode=10|XSize=39.37mil|YSize=35.43mil|CornerRadius=4.43mil|HoleSize=0mil|Usage=FLASHONLY|Rotation=90.000|XOffset=0mil|YOffset=0mil|HoleType=Round|Shape=RoundedRectangle|*
%AMROUNDEDRECTD10*
21,1,0.03937,0.02658,0,0,90.0*
21,1,0.03051,0.03543,0,0,90.0*
1,1,0.00886,0.01329,0.01526*
1,1,0.00886,0.01329,-0.01526*
1,1,0.00886,-0.01329,-0.01526*
1,1,0.00886,-0.01329,0.01526*
%
%ADD10ROUNDEDRECTD10*%
G04:AMPARAMS|DCode=11|XSize=31.5mil|YSize=31.5mil|CornerRadius=3.94mil|HoleSize=0mil|Usage=FLASHONLY|Rotation=180.000|XOffset=0mil|YOffset=0mil|HoleType=Round|Shape=RoundedRectangle|*
%AMROUNDEDRECTD11*
21,1,0.03150,0.02362,0,0,180.0*
21,1,0.02362,0.03150,0,0,180.0*
1,1,0.00787,-0.01181,0.01181*
1,1,0.00787,0.01181,0.01181*
1,1,0.00787,0.01181,-0.01181*
1,1,0.00787,-0.01181,-0.01181*
%
%ADD11ROUNDEDRECTD11*%
%ADD12C,0.01000*%
%ADD13C,0.06693*%
%ADD14R,0.05906X0.05906*%
%ADD15C,0.05906*%
%ADD16C,0.06693*%
%ADD17R,0.06693X0.06693*%
G04:AMPARAMS|DCode=18|XSize=100mil|YSize=100mil|CornerRadius=12.5mil|HoleSize=0mil|Usage=FLASHONLY|Rotation=180.000|XOffset=0mil|YOffset=0mil|HoleType=Round|Shape=RoundedRectangle|*
%AMROUNDEDRECTD18*
21,1,0.10000,0.07500,0,0,180.0*
21,1,0.07500,0.10000,0,0,180.0*
1,1,0.02500,-0.03750,0.03750*
1,1,0.02500,0.03750,0.03750*
1,1,0.02500,0.03750,-0.03750*
1,1,0.02500,-0.03750,-0.03750*
%
%ADD18ROUNDEDRECTD18*%
%ADD19C,0.10000*%
%ADD20C,0.25590*%
G36*
X116142Y1969D02*
X1969D01*
Y171260D01*
X116142D01*
Y1969D01*
D02*
G37*
%LPC*%
G36*
X98425Y35498D02*
X95952Y35303D01*
X93539Y34724D01*
X91246Y33774D01*
X89131Y32478D01*
X87244Y30866D01*
X85633Y28979D01*
X84336Y26864D01*
X83387Y24571D01*
X82807Y22159D01*
X82613Y19685D01*
X82807Y17211D01*
X83387Y14799D01*
X84336Y12506D01*
X85633Y10391D01*
X87244Y8504D01*
X89131Y6893D01*
X91246Y5596D01*
X93539Y4646D01*
X95952Y4067D01*
X98425Y3872D01*
X100899Y4067D01*
X103312Y4646D01*
X105604Y5596D01*
X107720Y6893D01*
X109606Y8504D01*
X111218Y10391D01*
X112514Y12506D01*
X113464Y14799D01*
X114043Y17211D01*
X114238Y19685D01*
X114043Y22159D01*
X113464Y24571D01*
X112514Y26864D01*
X111218Y28979D01*
X109606Y30866D01*
X107720Y32478D01*
X105604Y33774D01*
X103312Y34724D01*
X100899Y35303D01*
X98425Y35498D01*
D02*
G37*
G36*
X19685Y35498D02*
X17211Y35303D01*
X14799Y34724D01*
X12506Y33774D01*
X10391Y32478D01*
X8504Y30866D01*
X6892Y28979D01*
X5596Y26864D01*
X4646Y24571D01*
X4067Y22159D01*
X3872Y19685D01*
X4067Y17211D01*
X4646Y14799D01*
X5596Y12506D01*
X6892Y10391D01*
X8504Y8504D01*
X10391Y6892D01*
X12506Y5596D01*
X14799Y4646D01*
X17211Y4067D01*
X19685Y3872D01*
X22159Y4067D01*
X24571Y4646D01*
X26864Y5596D01*
X28979Y6892D01*
X30866Y8504D01*
X32478Y10391D01*
X33774Y12506D01*
X34724Y14799D01*
X35303Y17211D01*
X35498Y19685D01*
X35303Y22159D01*
X34724Y24571D01*
X33774Y26864D01*
X32478Y28979D01*
X30866Y30866D01*
X28979Y32478D01*
X26864Y33774D01*
X24571Y34724D01*
X22159Y35303D01*
X19685Y35498D01*
D02*
G37*
G36*
X98425Y169356D02*
X95952Y169161D01*
X93539Y168582D01*
X91246Y167632D01*
X89131Y166336D01*
X87244Y164724D01*
X85633Y162838D01*
X84336Y160722D01*
X83387Y158430D01*
X82807Y156017D01*
X82613Y153543D01*
X82807Y151070D01*
X83387Y148657D01*
X84336Y146365D01*
X85633Y144249D01*
X87244Y142362D01*
X89131Y140751D01*
X91246Y139454D01*
X93539Y138505D01*
X95952Y137926D01*
X98425Y137731D01*
X100899Y137926D01*
X103312Y138505D01*
X105604Y139454D01*
X107720Y140751D01*
X109606Y142362D01*
X111218Y144249D01*
X112514Y146365D01*
X113464Y148657D01*
X114043Y151070D01*
X114238Y153543D01*
X114043Y156017D01*
X113464Y158430D01*
X112514Y160722D01*
X111218Y162838D01*
X109606Y164724D01*
X107720Y166336D01*
X105604Y167632D01*
X103312Y168582D01*
X100899Y169161D01*
X98425Y169356D01*
D02*
G37*
G36*
X19685D02*
X17211Y169161D01*
X14799Y168582D01*
X12506Y167632D01*
X10391Y166336D01*
X8504Y164724D01*
X6892Y162838D01*
X5596Y160722D01*
X4646Y158430D01*
X4067Y156017D01*
X3872Y153543D01*
X4067Y151070D01*
X4646Y148657D01*
X5596Y146365D01*
X6892Y144249D01*
X8504Y142362D01*
X10391Y140751D01*
X12506Y139454D01*
X14799Y138505D01*
X17211Y137926D01*
X19685Y137731D01*
X22159Y137926D01*
X24571Y138505D01*
X26864Y139454D01*
X28979Y140751D01*
X30866Y142362D01*
X32478Y144249D01*
X33774Y146365D01*
X34724Y148657D01*
X35303Y151070D01*
X35498Y153543D01*
X35303Y156017D01*
X34724Y158430D01*
X33774Y160722D01*
X32478Y162838D01*
X30866Y164724D01*
X28979Y166336D01*
X26864Y167632D01*
X24571Y168582D01*
X22159Y169161D01*
X19685Y169356D01*
D02*
G37*
G36*
X63976Y163430D02*
X62816Y163316D01*
X61699Y162977D01*
X60671Y162427D01*
X59769Y161688D01*
X59029Y160786D01*
X58479Y159757D01*
X58141Y158641D01*
X58026Y157480D01*
X58141Y156319D01*
X58479Y155203D01*
X59029Y154175D01*
X59769Y153273D01*
X60478Y152691D01*
Y149213D01*
X60538Y148760D01*
X60597Y148307D01*
X60947Y147463D01*
X61503Y146739D01*
X82435Y125806D01*
Y124459D01*
X82552Y123568D01*
X82896Y122738D01*
X83443Y122026D01*
X84156Y121479D01*
X84985Y121135D01*
X85876Y121018D01*
X88534D01*
X89424Y121135D01*
X89899Y121332D01*
X90399Y120998D01*
Y107158D01*
X88077Y104836D01*
X87521Y104111D01*
X87172Y103268D01*
X87127Y102929D01*
X84236D01*
Y92960D01*
X73494D01*
X44605Y121849D01*
X43644Y122638D01*
X42546Y123225D01*
X41356Y123586D01*
X40118Y123708D01*
X38572D01*
X38255Y124121D01*
X37374Y124797D01*
X36347Y125222D01*
X35246Y125367D01*
X27746D01*
X26645Y125222D01*
X25619Y124797D01*
X24737Y124121D01*
X24061Y123240D01*
X23636Y122213D01*
X23491Y121112D01*
Y113612D01*
X23636Y112511D01*
X24061Y111485D01*
X24737Y110603D01*
X25619Y109927D01*
X26645Y109502D01*
X26925Y109465D01*
X26969Y108955D01*
X25834Y108024D01*
X24838Y106811D01*
X24099Y105426D01*
X23643Y103924D01*
X23595Y103435D01*
X9293Y89133D01*
X8503Y88171D01*
X7917Y87074D01*
X7556Y85884D01*
X7434Y84646D01*
Y58071D01*
X7556Y56833D01*
X7917Y55643D01*
X8503Y54545D01*
X9293Y53584D01*
X15434Y47442D01*
X16396Y46653D01*
X17493Y46067D01*
X18683Y45706D01*
X19921Y45584D01*
X26667D01*
X27048Y45272D01*
X27998Y44764D01*
Y43898D01*
X28057Y43445D01*
X28117Y42992D01*
X28466Y42148D01*
X29022Y41424D01*
X51136Y19310D01*
Y18504D01*
X51252Y17626D01*
X51591Y16808D01*
X52130Y16106D01*
X52832Y15567D01*
X53650Y15228D01*
X54528Y15113D01*
X56890D01*
X57767Y15228D01*
X58585Y15567D01*
X59055Y15927D01*
X59525Y15567D01*
X60343Y15228D01*
X61221Y15113D01*
X63583D01*
X64460Y15228D01*
X65278Y15567D01*
X65981Y16106D01*
X66520Y16808D01*
X66858Y17626D01*
X66974Y18504D01*
Y20866D01*
X66858Y21744D01*
X66520Y22562D01*
X65981Y23264D01*
X65900Y23326D01*
Y32257D01*
X66163Y32459D01*
X66710Y33171D01*
X67054Y34001D01*
X67171Y34892D01*
Y37943D01*
X67054Y38833D01*
X66710Y39663D01*
X66163Y40376D01*
X65451Y40923D01*
X64621Y41267D01*
X63730Y41384D01*
X61073D01*
X60182Y41267D01*
X59707Y41070D01*
X59207Y41404D01*
Y70008D01*
X69599Y80400D01*
X69628Y80391D01*
X70247Y80330D01*
X70866Y80269D01*
X90551D01*
X91789Y80391D01*
X92980Y80752D01*
X94077Y81338D01*
X95038Y82127D01*
X95827Y83089D01*
X96414Y84186D01*
X96775Y85376D01*
X96897Y86614D01*
X96775Y87852D01*
X96414Y89043D01*
X96009Y89799D01*
X96309Y90299D01*
X96866D01*
Y102929D01*
X96766D01*
X96520Y103429D01*
X96927Y103959D01*
X97277Y104803D01*
X97396Y105709D01*
Y121824D01*
X97659Y122026D01*
X98206Y122738D01*
X98550Y123568D01*
X98667Y124459D01*
Y127510D01*
X98550Y128400D01*
X98206Y129230D01*
X97659Y129943D01*
X96947Y130490D01*
X96117Y130833D01*
X95226Y130951D01*
X92569D01*
X91678Y130833D01*
X90848Y130490D01*
X90551Y130262D01*
X90254Y130490D01*
X89424Y130833D01*
X88534Y130951D01*
X87186D01*
X67475Y150662D01*
Y152691D01*
X68184Y153273D01*
X68923Y154175D01*
X69473Y155203D01*
X69812Y156319D01*
X69926Y157480D01*
X69812Y158641D01*
X69473Y159757D01*
X68923Y160786D01*
X68184Y161688D01*
X67282Y162427D01*
X66253Y162977D01*
X65137Y163316D01*
X63976Y163430D01*
D02*
G37*
%LPD*%
G36*
X63905Y84601D02*
X53235Y73930D01*
X52679Y73206D01*
X52329Y72362D01*
X52270Y71909D01*
X52210Y71457D01*
Y40578D01*
X51947Y40376D01*
X51400Y39663D01*
X51056Y38833D01*
X50939Y37943D01*
Y34892D01*
X51056Y34001D01*
X51400Y33171D01*
X51947Y32459D01*
X52659Y31912D01*
X53489Y31568D01*
X54380Y31451D01*
X57037D01*
X57928Y31568D01*
X58403Y31765D01*
X58903Y31431D01*
Y24138D01*
X58403Y23878D01*
X57767Y24142D01*
X56890Y24257D01*
X56084D01*
X35671Y44670D01*
X35745Y45165D01*
X35945Y45272D01*
X37158Y46267D01*
X38154Y47481D01*
X38894Y48865D01*
X39349Y50367D01*
X39503Y51929D01*
X39349Y53491D01*
X38894Y54993D01*
X38154Y56378D01*
X37158Y57591D01*
X35945Y58587D01*
X34560Y59327D01*
X33058Y59782D01*
X31496Y59936D01*
X29934Y59782D01*
X28432Y59327D01*
X27048Y58587D01*
X26667Y58275D01*
X22550D01*
X20125Y60699D01*
Y82017D01*
X32568Y94461D01*
X33058Y94509D01*
X34560Y94965D01*
X35945Y95705D01*
X37158Y96700D01*
X38154Y97914D01*
X38894Y99298D01*
X39349Y100800D01*
X39503Y102362D01*
X39349Y103924D01*
X38894Y105426D01*
X38154Y106811D01*
X37158Y108024D01*
X36023Y108955D01*
X36067Y109465D01*
X36347Y109502D01*
X37374Y109927D01*
X38056Y110451D01*
X63905Y84601D01*
D02*
G37*
D10*
X87205Y125984D02*
D03*
X93898D02*
D03*
X62402Y36417D02*
D03*
X55709D02*
D03*
D11*
Y19685D02*
D03*
X62402D02*
D03*
D12*
X90551Y96614D02*
Y102362D01*
X93898Y105709D01*
Y125984D01*
X55709Y71457D02*
X70866Y86614D01*
X55709Y36417D02*
Y71457D01*
X31496Y43898D02*
X55709Y19685D01*
X31496Y43898D02*
Y51929D01*
X63976Y149213D02*
Y157480D01*
Y149213D02*
X87205Y125984D01*
X62402Y36417D02*
X62402Y36417D01*
Y19685D02*
Y36417D01*
D13*
X70866Y86614D02*
X90551D01*
X40118Y117362D02*
X70866Y86614D01*
X31496Y117362D02*
X40118D01*
X19921Y51929D02*
X31496D01*
X13780Y58071D02*
X19921Y51929D01*
X13780Y58071D02*
Y84646D01*
X31496Y102362D01*
D14*
X53976Y157480D02*
D03*
D15*
X63976D02*
D03*
D16*
X90551Y76614D02*
D03*
Y86614D02*
D03*
D17*
Y96614D02*
D03*
D18*
X31496Y66929D02*
D03*
Y117362D02*
D03*
D19*
Y51929D02*
D03*
Y102362D02*
D03*
D20*
X98425Y19685D02*
D03*
Y153543D02*
D03*
X19685D02*
D03*
Y19685D02*
D03*
M02*
